<svg width="119" height="19" viewBox="0 0 119 19" fill="none" xmlns="http://www.w3.org/2000/svg">
<g clip-path="url(#clip0_0_795)">
<path fill-rule="evenodd" clip-rule="evenodd" d="M3.0905 3.91311H16.7397C17.2062 3.91311 17.5482 4.35211 17.4353 4.80391L15.9785 10.6305C15.9025 10.9345 15.6378 11.1539 15.3251 11.1723L3.86762 11.8456C4.07245 12.3243 4.54702 12.6529 5.09162 12.6529H13.0982C14.2967 12.6529 15.2717 13.628 15.2717 14.8264C15.2717 16.0249 14.2967 17 13.0982 17C11.5964 17 10.5406 15.502 11.0544 14.0868H7.13056C7.645 15.5038 6.58692 17 5.08677 17C3.27933 17 2.26409 14.9081 3.37522 13.4891C2.75894 13.0009 2.40119 12.2825 2.34268 11.6204C1.43419 1.49854 1.47444 1.94695 1.55953 2.89506L1.56008 2.9012C1.61714 3.53699 1.6934 4.38676 1.51811 2.43385H0.716927C0.320978 2.43385 0 2.11288 0 1.71693C0 1.32098 0.320978 1 0.716927 1H2.17355C2.54465 1 2.85443 1.28322 2.88761 1.65285L3.0905 3.91311ZM4.3471 14.8264C4.3471 15.2343 4.67894 15.5661 5.08677 15.5661C5.49463 15.5661 5.82647 15.2343 5.82647 14.8264C5.82647 14.4186 5.49463 14.0868 5.08677 14.0868C4.67894 14.0868 4.3471 14.4186 4.3471 14.8264ZM13.0982 15.5661C12.6903 15.5661 12.3585 15.2343 12.3585 14.8264C12.3585 14.4186 12.6903 14.0868 13.0982 14.0868C13.506 14.0868 13.8379 14.4186 13.8379 14.8264C13.8379 15.2343 13.506 15.5661 13.0982 15.5661ZM3.67463 10.4206L14.7152 9.77181L15.8215 5.34693H3.21921L3.67463 10.4206Z" fill="white"/>
<path d="M33 16L37.5703 4.28125H40.25L44.8203 16H42.2656L41.2812 13.375H36.5391L35.5547 16H33ZM40.5 11.2656C40.1875 10.349 39.9089 9.52865 39.6641 8.80469C39.4193 8.08073 39.1693 7.33333 38.9141 6.5625C38.6589 7.33333 38.4062 8.08073 38.1562 8.80469C37.9115 9.52865 37.6328 10.349 37.3203 11.2656H40.5ZM45.2969 12.0938C45.2969 11.3125 45.4609 10.6172 45.7891 10.0078C46.1172 9.39323 46.5677 8.91146 47.1406 8.5625C47.7188 8.20833 48.3724 8.03125 49.1016 8.03125C49.5911 8.03125 50.0469 8.11458 50.4688 8.28125C50.8906 8.44271 51.2656 8.66927 51.5938 8.96094V4.28125H53.8438V16H51.7188L51.6641 15.1562C51.3359 15.474 50.9531 15.7214 50.5156 15.8984C50.0833 16.0703 49.612 16.1562 49.1016 16.1562C48.3724 16.1562 47.7188 15.9818 47.1406 15.6328C46.5677 15.2786 46.1172 14.7969 45.7891 14.1875C45.4609 13.5729 45.2969 12.875 45.2969 12.0938ZM47.625 12.0938C47.625 12.6979 47.8125 13.2005 48.1875 13.6016C48.5625 14.0026 49.0365 14.2031 49.6094 14.2031C50.1823 14.2031 50.6562 14.0026 51.0312 13.6016C51.4062 13.2005 51.5938 12.6979 51.5938 12.0938C51.5938 11.4896 51.4062 10.987 51.0312 10.5859C50.6562 10.1849 50.1823 9.98438 49.6094 9.98438C49.0365 9.98438 48.5625 10.1849 48.1875 10.5859C47.8125 10.987 47.625 11.4896 47.625 12.0938ZM55.3281 12.0938C55.3281 11.3125 55.4922 10.6172 55.8203 10.0078C56.1484 9.39323 56.599 8.91146 57.1719 8.5625C57.75 8.20833 58.4036 8.03125 59.1328 8.03125C59.6224 8.03125 60.0781 8.11458 60.5 8.28125C60.9219 8.44271 61.2969 8.66927 61.625 8.96094V4.28125H63.875V16H61.75L61.6953 15.1562C61.3672 15.474 60.9844 15.7214 60.5469 15.8984C60.1146 16.0703 59.6432 16.1562 59.1328 16.1562C58.4036 16.1562 57.75 15.9818 57.1719 15.6328C56.599 15.2786 56.1484 14.7969 55.8203 14.1875C55.4922 13.5729 55.3281 12.875 55.3281 12.0938ZM57.6562 12.0938C57.6562 12.6979 57.8438 13.2005 58.2188 13.6016C58.5938 14.0026 59.0677 14.2031 59.6406 14.2031C60.2135 14.2031 60.6875 14.0026 61.0625 13.6016C61.4375 13.2005 61.625 12.6979 61.625 12.0938C61.625 11.4896 61.4375 10.987 61.0625 10.5859C60.6875 10.1849 60.2135 9.98438 59.6406 9.98438C59.0677 9.98438 58.5938 10.1849 58.2188 10.5859C57.8438 10.987 57.6562 11.4896 57.6562 12.0938ZM69.0312 8.1875H70.3203V6.23438H72.5703V8.1875H74.4688V10.1406H72.5703V13.0156C72.5703 13.3854 72.6875 13.6771 72.9219 13.8906C73.1615 14.099 73.4635 14.2031 73.8281 14.2031C74.099 14.2031 74.3776 14.1432 74.6641 14.0234V15.8672C74.1693 16.0599 73.6823 16.1562 73.2031 16.1562C72.276 16.1562 71.5625 15.9089 71.0625 15.4141C70.5677 14.9141 70.3203 14.2005 70.3203 13.2734V10.1406H69.0312V8.1875ZM75.8438 12.0938C75.8438 11.3125 76.0234 10.6172 76.3828 10.0078C76.7474 9.39323 77.2422 8.91146 77.8672 8.5625C78.4974 8.20833 79.2135 8.03125 80.0156 8.03125C80.8177 8.03125 81.5312 8.20833 82.1562 8.5625C82.7812 8.91146 83.2734 9.39323 83.6328 10.0078C83.9974 10.6172 84.1797 11.3125 84.1797 12.0938C84.1797 12.875 83.9974 13.5729 83.6328 14.1875C83.2734 14.7969 82.7812 15.2786 82.1562 15.6328C81.5312 15.9818 80.8177 16.1562 80.0156 16.1562C79.2135 16.1562 78.4974 15.9818 77.8672 15.6328C77.2422 15.2786 76.7474 14.7969 76.3828 14.1875C76.0234 13.5729 75.8438 12.875 75.8438 12.0938ZM78.0312 12.0938C78.0312 12.6979 78.2188 13.2005 78.5938 13.6016C78.9688 14.0026 79.4427 14.2031 80.0156 14.2031C80.5885 14.2031 81.0625 14.0026 81.4375 13.6016C81.8125 13.2005 82 12.6979 82 12.0938C82 11.4896 81.8125 10.987 81.4375 10.5859C81.0625 10.1849 80.5885 9.98438 80.0156 9.98438C79.4427 9.98438 78.9688 10.1849 78.5938 10.5859C78.2188 10.987 78.0312 11.4896 78.0312 12.0938ZM96.1172 15C95.737 15.3646 95.2812 15.6484 94.75 15.8516C94.224 16.0547 93.651 16.1562 93.0312 16.1562C92.2031 16.1562 91.4635 15.9818 90.8125 15.6328C90.1667 15.2786 89.6562 14.7969 89.2812 14.1875C88.9062 13.5729 88.7188 12.875 88.7188 12.0938C88.7188 11.3125 88.9062 10.6172 89.2812 10.0078C89.6562 9.39323 90.1667 8.91146 90.8125 8.5625C91.4635 8.20833 92.2031 8.03125 93.0312 8.03125C93.651 8.03125 94.224 8.13281 94.75 8.33594C95.2812 8.53906 95.737 8.82292 96.1172 9.1875L94.5312 10.6797C94.1562 10.2161 93.6562 9.98438 93.0312 9.98438C92.4583 9.98438 91.9844 10.1849 91.6094 10.5859C91.2344 10.987 91.0469 11.4896 91.0469 12.0938C91.0469 12.6979 91.2344 13.2005 91.6094 13.6016C91.9844 14.0026 92.4583 14.2031 93.0312 14.2031C93.6562 14.2031 94.1562 13.9714 94.5312 13.5078L96.1172 15ZM97.3594 13.8516C97.3594 13.3307 97.5078 12.8646 97.8047 12.4531C98.1068 12.0417 98.5208 11.7161 99.0469 11.4766C99.5729 11.237 100.174 11.1172 100.852 11.1172C101.065 11.1172 101.289 11.1302 101.523 11.1562C101.763 11.1823 102.003 11.2161 102.242 11.2578C102.07 10.4089 101.453 9.98438 100.391 9.98438C99.7604 9.98438 99.1276 10.2214 98.4922 10.6953L97.7188 8.79688C98.2604 8.53646 98.7943 8.34375 99.3203 8.21875C99.8464 8.09375 100.346 8.03125 100.82 8.03125C101.576 8.03125 102.229 8.17448 102.781 8.46094C103.339 8.74219 103.771 9.14323 104.078 9.66406C104.385 10.1797 104.539 10.7865 104.539 11.4844V16H102.648L102.5 15.1641C102.208 15.4714 101.852 15.7135 101.43 15.8906C101.013 16.0677 100.555 16.1562 100.055 16.1562C99.263 16.1562 98.6146 15.9427 98.1094 15.5156C97.6094 15.0885 97.3594 14.5339 97.3594 13.8516ZM99.6094 13.3359C99.6094 13.5964 99.7083 13.8073 99.9062 13.9688C100.109 14.125 100.375 14.2031 100.703 14.2031C101.151 14.2031 101.526 14.0677 101.828 13.7969C102.135 13.526 102.289 13.1927 102.289 12.7969V12.6406C102.096 12.5781 101.888 12.5286 101.664 12.4922C101.445 12.4557 101.229 12.4375 101.016 12.4375C100.573 12.4375 100.227 12.5156 99.9766 12.6719C99.7318 12.8281 99.6094 13.0495 99.6094 13.3359ZM106.422 16V8.1875H108.391L108.5 9.30469C109.068 8.45573 109.849 8.03125 110.844 8.03125C111.182 8.03125 111.531 8.08333 111.891 8.1875L111.578 10.1328C111.276 10.0339 110.979 9.98438 110.688 9.98438C110.083 9.98438 109.596 10.2083 109.227 10.6562C108.857 11.099 108.672 11.7318 108.672 12.5547V16H106.422ZM112.281 8.1875H113.57V6.23438H115.82V8.1875H117.719V10.1406H115.82V13.0156C115.82 13.3854 115.938 13.6771 116.172 13.8906C116.411 14.099 116.714 14.2031 117.078 14.2031C117.349 14.2031 117.628 14.1432 117.914 14.0234V15.8672C117.419 16.0599 116.932 16.1562 116.453 16.1562C115.526 16.1562 114.812 15.9089 114.312 15.4141C113.818 14.9141 113.57 14.2005 113.57 13.2734V10.1406H112.281V8.1875Z" fill="white"/>
</g>
<defs>
<clipPath id="clip0_0_795">
<rect width="119" height="19" fill="white"/>
</clipPath>
</defs>
</svg>
